<svg xmlns="http://www.w3.org/2000/svg" width="1200" height="630" viewBox="0 0 1200 630" font-family="Droid Sans Japanese,Droid Sans Fallback,Noto Sans JP,sans-serif">
<defs>
<radialGradient id="glow" cx="50%" cy="30%" r="72%">
  <stop offset="0" stop-color="#1b2husk"/></radialGradient>
<linearGradient id="frame" x1="0" y1="0" x2="0" y2="1">
  <stop offset="0" stop-color="#3a2e22"/><stop offset="1" stop-color="#241c14"/></linearGradient>
<linearGradient id="inner" x1="0" y1="0" x2="0" y2="1">
  <stop offset="0" stop-color="#0d1116"/><stop offset="1" stop-color="#121820"/></linearGradient>
<linearGradient id="beadg" x1="0" y1="0" x2="0" y2="1">
  <stop offset="0" stop-color="#ffc978"/><stop offset="1" stop-color="#e08b2a"/></linearGradient>
<linearGradient id="beadoff" x1="0" y1="0" x2="0" y2="1">
  <stop offset="0" stop-color="#6d5a45"/><stop offset="1" stop-color="#4a3c2e"/></linearGradient>
<linearGradient id="wing" x1="0" y1="0" x2="1" y2="1">
  <stop offset="0" stop-color="#cfe6ff" stop-opacity=".40"/>
  <stop offset="1" stop-color="#9fd0ff" stop-opacity=".12"/></linearGradient>
<linearGradient id="thorax" x1="0" y1="0" x2="0" y2="1">
  <stop offset="0" stop-color="#3b434d"/><stop offset="1" stop-color="#171c22"/></linearGradient>
</defs>
<rect width="1200" height="630" fill="#0b0e12"/>
<ellipse cx="600" cy="250" rx="640" ry="330" fill="#16202b" opacity=".55"/>
<ellipse cx="600" cy="330" rx="420" ry="170" fill="#1d2b3a" opacity=".45"/>
<text x="70" y="104" font-size="58" font-weight="700" fill="#e8eef4">ハエにそろばん覚えさせてみた</text>
<text x="74" y="156" font-size="24" fill="#59b7ff">FlyWire の全脳コネクトーム 138,639 ニューロンに、そろばんの回路を移植</text>
<text x="74" y="196" font-size="24" fill="#8c99a8">8 桁の足し算・引き算・かけ算を、蠅が六本の脚で珠を弾いて解きます</text>
<rect x="74" y="264" width="1052" height="320" rx="16" fill="url(#frame)" stroke="#4a3a28" stroke-width="2"/>
<rect x="89" y="279" width="1022" height="290" rx="5" fill="url(#inner)"/>
<rect x="150.4" y="279" width="5" height="290" rx="2.5" fill="#6b727b"/>
<rect x="150.4" y="279" width="2" height="290" fill="#9aa3ad" opacity=".5"/>
<rect x="278.1" y="279" width="5" height="290" rx="2.5" fill="#6b727b"/>
<rect x="278.1" y="279" width="2" height="290" fill="#9aa3ad" opacity=".5"/>
<rect x="405.9" y="279" width="5" height="290" rx="2.5" fill="#6b727b"/>
<rect x="405.9" y="279" width="2" height="290" fill="#9aa3ad" opacity=".5"/>
<rect x="533.6" y="279" width="5" height="290" rx="2.5" fill="#6b727b"/>
<rect x="533.6" y="279" width="2" height="290" fill="#9aa3ad" opacity=".5"/>
<rect x="661.4" y="279" width="5" height="290" rx="2.5" fill="#6b727b"/>
<rect x="661.4" y="279" width="2" height="290" fill="#9aa3ad" opacity=".5"/>
<rect x="789.1" y="279" width="5" height="290" rx="2.5" fill="#6b727b"/>
<rect x="789.1" y="279" width="2" height="290" fill="#9aa3ad" opacity=".5"/>
<rect x="916.9" y="279" width="5" height="290" rx="2.5" fill="#6b727b"/>
<rect x="916.9" y="279" width="2" height="290" fill="#9aa3ad" opacity=".5"/>
<rect x="1044.6" y="279" width="5" height="290" rx="2.5" fill="#6b727b"/>
<rect x="1044.6" y="279" width="2" height="290" fill="#9aa3ad" opacity=".5"/>
<rect x="89" y="371" width="1022" height="13" fill="#2e2418" stroke="#4a3a28" stroke-width="1.5"/>
<circle cx="280.6" cy="377.5" r="3" fill="#ffb454" opacity=".75"/>
<circle cx="663.9" cy="377.5" r="3" fill="#ffb454" opacity=".75"/>
<circle cx="1047.1" cy="377.5" r="3" fill="#ffb454" opacity=".75"/>
<path d="M99.2,299.0 Q119.6,281.3 152.9,282.0 Q186.1,281.3 206.5,299.0 Q186.1,316.7 152.9,316.0 Q119.6,316.7 99.2,299.0 Z" fill="url(#beadoff)" stroke="#2a2118" stroke-width="1.5" opacity="1.0"/><path d="M114.2,296.0 Q152.9,284.0 191.5,296.0" fill="none" stroke="#ffffff" stroke-width="2" opacity="0.22"/>
<path d="M99.2,404.0 Q119.6,386.3 152.9,387.0 Q186.1,386.3 206.5,404.0 Q186.1,421.7 152.9,421.0 Q119.6,421.7 99.2,404.0 Z" fill="url(#beadg)" stroke="#2a2118" stroke-width="1.5" opacity="1.0"/><path d="M114.2,401.0 Q152.9,389.0 191.5,401.0" fill="none" stroke="#ffffff" stroke-width="2" opacity="0.22"/>
<path d="M99.2,475.0 Q119.6,457.3 152.9,458.0 Q186.1,457.3 206.5,475.0 Q186.1,492.7 152.9,492.0 Q119.6,492.7 99.2,475.0 Z" fill="url(#beadoff)" stroke="#2a2118" stroke-width="1.5" opacity="1.0"/><path d="M114.2,472.0 Q152.9,460.0 191.5,472.0" fill="none" stroke="#ffffff" stroke-width="2" opacity="0.22"/>
<path d="M99.2,512.0 Q119.6,494.3 152.9,495.0 Q186.1,494.3 206.5,512.0 Q186.1,529.7 152.9,529.0 Q119.6,529.7 99.2,512.0 Z" fill="url(#beadoff)" stroke="#2a2118" stroke-width="1.5" opacity="1.0"/><path d="M114.2,509.0 Q152.9,497.0 191.5,509.0" fill="none" stroke="#ffffff" stroke-width="2" opacity="0.22"/>
<path d="M99.2,549.0 Q119.6,531.3 152.9,532.0 Q186.1,531.3 206.5,549.0 Q186.1,566.7 152.9,566.0 Q119.6,566.7 99.2,549.0 Z" fill="url(#beadoff)" stroke="#2a2118" stroke-width="1.5" opacity="1.0"/><path d="M114.2,546.0 Q152.9,534.0 191.5,546.0" fill="none" stroke="#ffffff" stroke-width="2" opacity="0.22"/>
<path d="M227.0,299.0 Q247.4,281.3 280.6,282.0 Q313.9,281.3 334.3,299.0 Q313.9,316.7 280.6,316.0 Q247.4,316.7 227.0,299.0 Z" fill="url(#beadoff)" stroke="#2a2118" stroke-width="1.5" opacity="1.0"/><path d="M242.0,296.0 Q280.6,284.0 319.3,296.0" fill="none" stroke="#ffffff" stroke-width="2" opacity="0.22"/>
<path d="M227.0,404.0 Q247.4,386.3 280.6,387.0 Q313.9,386.3 334.3,404.0 Q313.9,421.7 280.6,421.0 Q247.4,421.7 227.0,404.0 Z" fill="url(#beadg)" stroke="#2a2118" stroke-width="1.5" opacity="1.0"/><path d="M242.0,401.0 Q280.6,389.0 319.3,401.0" fill="none" stroke="#ffffff" stroke-width="2" opacity="0.22"/>
<path d="M227.0,441.0 Q247.4,423.3 280.6,424.0 Q313.9,423.3 334.3,441.0 Q313.9,458.7 280.6,458.0 Q247.4,458.7 227.0,441.0 Z" fill="url(#beadg)" stroke="#2a2118" stroke-width="1.5" opacity="1.0"/><path d="M242.0,438.0 Q280.6,426.0 319.3,438.0" fill="none" stroke="#ffffff" stroke-width="2" opacity="0.22"/>
<path d="M227.0,512.0 Q247.4,494.3 280.6,495.0 Q313.9,494.3 334.3,512.0 Q313.9,529.7 280.6,529.0 Q247.4,529.7 227.0,512.0 Z" fill="url(#beadoff)" stroke="#2a2118" stroke-width="1.5" opacity="1.0"/><path d="M242.0,509.0 Q280.6,497.0 319.3,509.0" fill="none" stroke="#ffffff" stroke-width="2" opacity="0.22"/>
<path d="M227.0,549.0 Q247.4,531.3 280.6,532.0 Q313.9,531.3 334.3,549.0 Q313.9,566.7 280.6,566.0 Q247.4,566.7 227.0,549.0 Z" fill="url(#beadoff)" stroke="#2a2118" stroke-width="1.5" opacity="1.0"/><path d="M242.0,546.0 Q280.6,534.0 319.3,546.0" fill="none" stroke="#ffffff" stroke-width="2" opacity="0.22"/>
<path d="M354.7,299.0 Q375.1,281.3 408.4,282.0 Q441.6,281.3 462.0,299.0 Q441.6,316.7 408.4,316.0 Q375.1,316.7 354.7,299.0 Z" fill="url(#beadoff)" stroke="#2a2118" stroke-width="1.5" opacity="1.0"/><path d="M369.7,296.0 Q408.4,284.0 447.0,296.0" fill="none" stroke="#ffffff" stroke-width="2" opacity="0.22"/>
<path d="M354.7,404.0 Q375.1,386.3 408.4,387.0 Q441.6,386.3 462.0,404.0 Q441.6,421.7 408.4,421.0 Q375.1,421.7 354.7,404.0 Z" fill="url(#beadg)" stroke="#2a2118" stroke-width="1.5" opacity="1.0"/><path d="M369.7,401.0 Q408.4,389.0 447.0,401.0" fill="none" stroke="#ffffff" stroke-width="2" opacity="0.22"/>
<path d="M354.7,441.0 Q375.1,423.3 408.4,424.0 Q441.6,423.3 462.0,441.0 Q441.6,458.7 408.4,458.0 Q375.1,458.7 354.7,441.0 Z" fill="url(#beadg)" stroke="#2a2118" stroke-width="1.5" opacity="1.0"/><path d="M369.7,438.0 Q408.4,426.0 447.0,438.0" fill="none" stroke="#ffffff" stroke-width="2" opacity="0.22"/>
<path d="M354.7,478.0 Q375.1,460.3 408.4,461.0 Q441.6,460.3 462.0,478.0 Q441.6,495.7 408.4,495.0 Q375.1,495.7 354.7,478.0 Z" fill="url(#beadg)" stroke="#2a2118" stroke-width="1.5" opacity="1.0"/><path d="M369.7,475.0 Q408.4,463.0 447.0,475.0" fill="none" stroke="#ffffff" stroke-width="2" opacity="0.22"/>
<path d="M354.7,549.0 Q375.1,531.3 408.4,532.0 Q441.6,531.3 462.0,549.0 Q441.6,566.7 408.4,566.0 Q375.1,566.7 354.7,549.0 Z" fill="url(#beadoff)" stroke="#2a2118" stroke-width="1.5" opacity="1.0"/><path d="M369.7,546.0 Q408.4,534.0 447.0,546.0" fill="none" stroke="#ffffff" stroke-width="2" opacity="0.22"/>
<path d="M482.5,299.0 Q502.9,281.3 536.1,282.0 Q569.4,281.3 589.8,299.0 Q569.4,316.7 536.1,316.0 Q502.9,316.7 482.5,299.0 Z" fill="url(#beadoff)" stroke="#2a2118" stroke-width="1.5" opacity="1.0"/><path d="M497.5,296.0 Q536.1,284.0 574.8,296.0" fill="none" stroke="#ffffff" stroke-width="2" opacity="0.22"/>
<path d="M482.5,404.0 Q502.9,386.3 536.1,387.0 Q569.4,386.3 589.8,404.0 Q569.4,421.7 536.1,421.0 Q502.9,421.7 482.5,404.0 Z" fill="url(#beadg)" stroke="#2a2118" stroke-width="1.5" opacity="1.0"/><path d="M497.5,401.0 Q536.1,389.0 574.8,401.0" fill="none" stroke="#ffffff" stroke-width="2" opacity="0.22"/>
<path d="M482.5,441.0 Q502.9,423.3 536.1,424.0 Q569.4,423.3 589.8,441.0 Q569.4,458.7 536.1,458.0 Q502.9,458.7 482.5,441.0 Z" fill="url(#beadg)" stroke="#2a2118" stroke-width="1.5" opacity="1.0"/><path d="M497.5,438.0 Q536.1,426.0 574.8,438.0" fill="none" stroke="#ffffff" stroke-width="2" opacity="0.22"/>
<path d="M482.5,478.0 Q502.9,460.3 536.1,461.0 Q569.4,460.3 589.8,478.0 Q569.4,495.7 536.1,495.0 Q502.9,495.7 482.5,478.0 Z" fill="url(#beadg)" stroke="#2a2118" stroke-width="1.5" opacity="1.0"/><path d="M497.5,475.0 Q536.1,463.0 574.8,475.0" fill="none" stroke="#ffffff" stroke-width="2" opacity="0.22"/>
<path d="M482.5,515.0 Q502.9,497.3 536.1,498.0 Q569.4,497.3 589.8,515.0 Q569.4,532.7 536.1,532.0 Q502.9,532.7 482.5,515.0 Z" fill="url(#beadg)" stroke="#2a2118" stroke-width="1.5" opacity="1.0"/><path d="M497.5,512.0 Q536.1,500.0 574.8,512.0" fill="none" stroke="#ffffff" stroke-width="2" opacity="0.22"/>
<path d="M610.2,351.0 Q630.6,333.3 663.9,334.0 Q697.1,333.3 717.5,351.0 Q697.1,368.7 663.9,368.0 Q630.6,368.7 610.2,351.0 Z" fill="url(#beadg)" stroke="#2a2118" stroke-width="1.5" opacity="1.0"/><path d="M625.2,348.0 Q663.9,336.0 702.5,348.0" fill="none" stroke="#ffffff" stroke-width="2" opacity="0.22"/>
<path d="M610.2,438.0 Q630.6,420.3 663.9,421.0 Q697.1,420.3 717.5,438.0 Q697.1,455.7 663.9,455.0 Q630.6,455.7 610.2,438.0 Z" fill="url(#beadoff)" stroke="#2a2118" stroke-width="1.5" opacity="1.0"/><path d="M625.2,435.0 Q663.9,423.0 702.5,435.0" fill="none" stroke="#ffffff" stroke-width="2" opacity="0.22"/>
<path d="M610.2,475.0 Q630.6,457.3 663.9,458.0 Q697.1,457.3 717.5,475.0 Q697.1,492.7 663.9,492.0 Q630.6,492.7 610.2,475.0 Z" fill="url(#beadoff)" stroke="#2a2118" stroke-width="1.5" opacity="1.0"/><path d="M625.2,472.0 Q663.9,460.0 702.5,472.0" fill="none" stroke="#ffffff" stroke-width="2" opacity="0.22"/>
<path d="M610.2,512.0 Q630.6,494.3 663.9,495.0 Q697.1,494.3 717.5,512.0 Q697.1,529.7 663.9,529.0 Q630.6,529.7 610.2,512.0 Z" fill="url(#beadoff)" stroke="#2a2118" stroke-width="1.5" opacity="1.0"/><path d="M625.2,509.0 Q663.9,497.0 702.5,509.0" fill="none" stroke="#ffffff" stroke-width="2" opacity="0.22"/>
<path d="M610.2,549.0 Q630.6,531.3 663.9,532.0 Q697.1,531.3 717.5,549.0 Q697.1,566.7 663.9,566.0 Q630.6,566.7 610.2,549.0 Z" fill="url(#beadoff)" stroke="#2a2118" stroke-width="1.5" opacity="1.0"/><path d="M625.2,546.0 Q663.9,534.0 702.5,546.0" fill="none" stroke="#ffffff" stroke-width="2" opacity="0.22"/>
<path d="M738.0,351.0 Q758.4,333.3 791.6,334.0 Q824.9,333.3 845.3,351.0 Q824.9,368.7 791.6,368.0 Q758.4,368.7 738.0,351.0 Z" fill="url(#beadg)" stroke="#2a2118" stroke-width="1.5" opacity="1.0"/><path d="M753.0,348.0 Q791.6,336.0 830.3,348.0" fill="none" stroke="#ffffff" stroke-width="2" opacity="0.22"/>
<path d="M738.0,404.0 Q758.4,386.3 791.6,387.0 Q824.9,386.3 845.3,404.0 Q824.9,421.7 791.6,421.0 Q758.4,421.7 738.0,404.0 Z" fill="url(#beadg)" stroke="#2a2118" stroke-width="1.5" opacity="1.0"/><path d="M753.0,401.0 Q791.6,389.0 830.3,401.0" fill="none" stroke="#ffffff" stroke-width="2" opacity="0.22"/>
<path d="M738.0,475.0 Q758.4,457.3 791.6,458.0 Q824.9,457.3 845.3,475.0 Q824.9,492.7 791.6,492.0 Q758.4,492.7 738.0,475.0 Z" fill="url(#beadoff)" stroke="#2a2118" stroke-width="1.5" opacity="1.0"/><path d="M753.0,472.0 Q791.6,460.0 830.3,472.0" fill="none" stroke="#ffffff" stroke-width="2" opacity="0.22"/>
<path d="M738.0,512.0 Q758.4,494.3 791.6,495.0 Q824.9,494.3 845.3,512.0 Q824.9,529.7 791.6,529.0 Q758.4,529.7 738.0,512.0 Z" fill="url(#beadoff)" stroke="#2a2118" stroke-width="1.5" opacity="1.0"/><path d="M753.0,509.0 Q791.6,497.0 830.3,509.0" fill="none" stroke="#ffffff" stroke-width="2" opacity="0.22"/>
<path d="M738.0,549.0 Q758.4,531.3 791.6,532.0 Q824.9,531.3 845.3,549.0 Q824.9,566.7 791.6,566.0 Q758.4,566.7 738.0,549.0 Z" fill="url(#beadoff)" stroke="#2a2118" stroke-width="1.5" opacity="1.0"/><path d="M753.0,546.0 Q791.6,534.0 830.3,546.0" fill="none" stroke="#ffffff" stroke-width="2" opacity="0.22"/>
<path d="M865.7,351.0 Q886.1,333.3 919.4,334.0 Q952.6,333.3 973.0,351.0 Q952.6,368.7 919.4,368.0 Q886.1,368.7 865.7,351.0 Z" fill="url(#beadg)" stroke="#2a2118" stroke-width="1.5" opacity="1.0"/><path d="M880.7,348.0 Q919.4,336.0 958.0,348.0" fill="none" stroke="#ffffff" stroke-width="2" opacity="0.22"/>
<path d="M865.7,404.0 Q886.1,386.3 919.4,387.0 Q952.6,386.3 973.0,404.0 Q952.6,421.7 919.4,421.0 Q886.1,421.7 865.7,404.0 Z" fill="url(#beadg)" stroke="#2a2118" stroke-width="1.5" opacity="1.0"/><path d="M880.7,401.0 Q919.4,389.0 958.0,401.0" fill="none" stroke="#ffffff" stroke-width="2" opacity="0.22"/>
<path d="M865.7,441.0 Q886.1,423.3 919.4,424.0 Q952.6,423.3 973.0,441.0 Q952.6,458.7 919.4,458.0 Q886.1,458.7 865.7,441.0 Z" fill="url(#beadg)" stroke="#2a2118" stroke-width="1.5" opacity="1.0"/><path d="M880.7,438.0 Q919.4,426.0 958.0,438.0" fill="none" stroke="#ffffff" stroke-width="2" opacity="0.22"/>
<path d="M865.7,512.0 Q886.1,494.3 919.4,495.0 Q952.6,494.3 973.0,512.0 Q952.6,529.7 919.4,529.0 Q886.1,529.7 865.7,512.0 Z" fill="url(#beadoff)" stroke="#2a2118" stroke-width="1.5" opacity="1.0"/><path d="M880.7,509.0 Q919.4,497.0 958.0,509.0" fill="none" stroke="#ffffff" stroke-width="2" opacity="0.22"/>
<path d="M865.7,549.0 Q886.1,531.3 919.4,532.0 Q952.6,531.3 973.0,549.0 Q952.6,566.7 919.4,566.0 Q886.1,566.7 865.7,549.0 Z" fill="url(#beadoff)" stroke="#2a2118" stroke-width="1.5" opacity="1.0"/><path d="M880.7,546.0 Q919.4,534.0 958.0,546.0" fill="none" stroke="#ffffff" stroke-width="2" opacity="0.22"/>
<path d="M993.5,351.0 Q1013.9,333.3 1047.1,334.0 Q1080.4,333.3 1100.8,351.0 Q1080.4,368.7 1047.1,368.0 Q1013.9,368.7 993.5,351.0 Z" fill="url(#beadg)" stroke="#2a2118" stroke-width="1.5" opacity="1.0"/><path d="M1008.5,348.0 Q1047.1,336.0 1085.8,348.0" fill="none" stroke="#ffffff" stroke-width="2" opacity="0.22"/>
<path d="M993.5,404.0 Q1013.9,386.3 1047.1,387.0 Q1080.4,386.3 1100.8,404.0 Q1080.4,421.7 1047.1,421.0 Q1013.9,421.7 993.5,404.0 Z" fill="url(#beadg)" stroke="#2a2118" stroke-width="1.5" opacity="1.0"/><path d="M1008.5,401.0 Q1047.1,389.0 1085.8,401.0" fill="none" stroke="#ffffff" stroke-width="2" opacity="0.22"/>
<path d="M993.5,441.0 Q1013.9,423.3 1047.1,424.0 Q1080.4,423.3 1100.8,441.0 Q1080.4,458.7 1047.1,458.0 Q1013.9,458.7 993.5,441.0 Z" fill="url(#beadg)" stroke="#2a2118" stroke-width="1.5" opacity="1.0"/><path d="M1008.5,438.0 Q1047.1,426.0 1085.8,438.0" fill="none" stroke="#ffffff" stroke-width="2" opacity="0.22"/>
<path d="M993.5,478.0 Q1013.9,460.3 1047.1,461.0 Q1080.4,460.3 1100.8,478.0 Q1080.4,495.7 1047.1,495.0 Q1013.9,495.7 993.5,478.0 Z" fill="url(#beadg)" stroke="#2a2118" stroke-width="1.5" opacity="1.0"/><path d="M1008.5,475.0 Q1047.1,463.0 1085.8,475.0" fill="none" stroke="#ffffff" stroke-width="2" opacity="0.22"/>
<path d="M993.5,549.0 Q1013.9,531.3 1047.1,532.0 Q1080.4,531.3 1100.8,549.0 Q1080.4,566.7 1047.1,566.0 Q1013.9,566.7 993.5,549.0 Z" fill="url(#beadoff)" stroke="#2a2118" stroke-width="1.5" opacity="1.0"/><path d="M1008.5,546.0 Q1047.1,534.0 1085.8,546.0" fill="none" stroke="#ffffff" stroke-width="2" opacity="0.22"/>
<ellipse cx="737.8" cy="397.0" rx="86" ry="58" fill="#000" opacity=".38"/><g transform="translate(727.8,363.0) scale(0.62)"><path d="M-26.0,-34.0 L-116.0,-104.0" fill="none" stroke="#0d1116" stroke-width="11.5" stroke-linecap="round"/><path d="M-26.0,-34.0 L-116.0,-104.0" fill="none" stroke="#333b45" stroke-width="8.0" stroke-linecap="round"/><path d="M-116.0,-104.0 L-515.1,-71.0" fill="none" stroke="#0d1116" stroke-width="8.5" stroke-linecap="round"/><path d="M-116.0,-104.0 L-515.1,-71.0" fill="none" stroke="#333b45" stroke-width="5.0" stroke-linecap="round"/><circle cx="-515.1" cy="-71.0" r="5.6" fill="#232a32"/><path d="M26.0,-34.0 L116.0,-104.0" fill="none" stroke="#0d1116" stroke-width="11.5" stroke-linecap="round"/><path d="M26.0,-34.0 L116.0,-104.0" fill="none" stroke="#333b45" stroke-width="8.0" stroke-linecap="round"/><path d="M116.0,-104.0 L309.1,-71.0" fill="none" stroke="#0d1116" stroke-width="8.5" stroke-linecap="round"/><path d="M116.0,-104.0 L309.1,-71.0" fill="none" stroke="#333b45" stroke-width="5.0" stroke-linecap="round"/><circle cx="309.1" cy="-71.0" r="5.6" fill="#232a32"/><path d="M-30.0,-6.0 L-150.0,24.0" fill="none" stroke="#0d1116" stroke-width="11.5" stroke-linecap="round"/><path d="M-30.0,-6.0 L-150.0,24.0" fill="none" stroke="#333b45" stroke-width="8.0" stroke-linecap="round"/><path d="M-150.0,24.0 L-721.2,119.4" fill="none" stroke="#0d1116" stroke-width="8.5" stroke-linecap="round"/><path d="M-150.0,24.0 L-721.2,119.4" fill="none" stroke="#333b45" stroke-width="5.0" stroke-linecap="round"/><circle cx="-721.2" cy="119.4" r="5.6" fill="#232a32"/><path d="M30.0,-6.0 L150.0,24.0" fill="none" stroke="#0d1116" stroke-width="11.5" stroke-linecap="round"/><path d="M30.0,-6.0 L150.0,24.0" fill="none" stroke="#333b45" stroke-width="8.0" stroke-linecap="round"/><path d="M150.0,24.0 L515.1,119.4" fill="none" stroke="#0d1116" stroke-width="8.5" stroke-linecap="round"/><path d="M150.0,24.0 L515.1,119.4" fill="none" stroke="#333b45" stroke-width="5.0" stroke-linecap="round"/><circle cx="515.1" cy="119.4" r="5.6" fill="#232a32"/><path d="M-26.0,22.0 L-104.0,128.0" fill="none" stroke="#0d1116" stroke-width="11.5" stroke-linecap="round"/><path d="M-26.0,22.0 L-104.0,128.0" fill="none" stroke="#333b45" stroke-width="8.0" stroke-linecap="round"/><path d="M-104.0,128.0 L-309.1,258.1" fill="none" stroke="#0d1116" stroke-width="8.5" stroke-linecap="round"/><path d="M-104.0,128.0 L-309.1,258.1" fill="none" stroke="#333b45" stroke-width="5.0" stroke-linecap="round"/><circle cx="-309.1" cy="258.1" r="5.6" fill="#232a32"/><path d="M26.0,22.0 L104.0,128.0" fill="none" stroke="#0d1116" stroke-width="11.5" stroke-linecap="round"/><path d="M26.0,22.0 L104.0,128.0" fill="none" stroke="#333b45" stroke-width="8.0" stroke-linecap="round"/><path d="M104.0,128.0 L103.0,258.1" fill="none" stroke="#0d1116" stroke-width="8.5" stroke-linecap="round"/><path d="M104.0,128.0 L103.0,258.1" fill="none" stroke="#333b45" stroke-width="5.0" stroke-linecap="round"/><circle cx="103.0" cy="258.1" r="5.6" fill="#232a32"/><ellipse cx="-74" cy="-18" rx="104" ry="46" fill="url(#wing)" stroke="#bcdcff" stroke-opacity=".30" stroke-width="2" transform="rotate(-26 -74 -18)"/><ellipse cx="74" cy="-18" rx="104" ry="46" fill="url(#wing)" stroke="#bcdcff" stroke-opacity=".30" stroke-width="2" transform="rotate(26 74 -18)"/><ellipse cx="0" cy="96" rx="52" ry="84" fill="#20262d" stroke="#0e1216" stroke-width="3"/><path d="M-49,62 Q0,78 49,62" fill="none" stroke="#0e1216" stroke-width="4" opacity=".75"/><path d="M-46,96 Q0,112 46,96" fill="none" stroke="#0e1216" stroke-width="4" opacity=".75"/><path d="M-43,130 Q0,146 43,130" fill="none" stroke="#0e1216" stroke-width="4" opacity=".75"/><ellipse cx="0" cy="0" rx="60" ry="68" fill="url(#thorax)" stroke="#0e1216" stroke-width="3"/><ellipse cx="0" cy="-74" rx="52" ry="44" fill="#2a3138" stroke="#0e1216" stroke-width="3"/><ellipse cx="-35" cy="-82" rx="26" ry="33" fill="#c2452f"/><ellipse cx="35" cy="-82" rx="26" ry="33" fill="#c2452f"/><ellipse cx="-40" cy="-92" rx="9" ry="12" fill="#ff9d84" opacity=".5"/><ellipse cx="30" cy="-92" rx="9" ry="12" fill="#ff9d84" opacity=".5"/></g>
<text x="70" y="606" font-size="25" fill="#8c99a8">12345677 ＋ 1 ＝ <tspan fill="#54d98c">12345678</tspan></text>
<text x="1130" y="606" font-size="23" fill="#8c99a8" text-anchor="end">hae.satoru.net/soroban</text>
</svg>